<svg width="27" height="27" viewBox="0 0 27 27" fill="none" xmlns="http://www.w3.org/2000/svg">
<path d="M19.1042 12.69H10.4322L13.8082 9.31401C13.9566 9.1594 14.0385 8.95278 14.0364 8.73847C14.0342 8.52416 13.9481 8.31925 13.7965 8.1677C13.645 8.01615 13.4401 7.93005 13.2258 7.92786C13.0114 7.92568 12.8048 8.00759 12.6502 8.15601L8.01521 12.79C7.8765 13.0045 7.80271 13.2546 7.80271 13.51C7.80271 13.7655 7.8765 14.0155 8.01521 14.23L12.6492 18.864C12.7253 18.94 12.8156 19.0003 12.9151 19.0415C13.0145 19.0826 13.121 19.1037 13.2286 19.1037C13.3361 19.1036 13.4427 19.0824 13.542 19.0412C13.6414 19 13.7317 18.9396 13.8077 18.8635C13.8837 18.7874 13.944 18.6971 13.9852 18.5977C14.0263 18.4983 14.0474 18.3917 14.0474 18.2842C14.0473 18.1766 14.0261 18.0701 13.9849 17.9707C13.9437 17.8713 13.8833 17.781 13.8072 17.705L10.4302 14.329H19.1022C19.3194 14.329 19.5277 14.2427 19.6813 14.0891C19.8349 13.9355 19.9212 13.7272 19.9212 13.51C19.9212 13.2928 19.8349 13.0845 19.6813 12.9309C19.5277 12.7773 19.3194 12.691 19.1022 12.691L19.1042 12.69ZM13.3702 0.402008C10.7778 0.40181 8.24365 1.17036 6.08808 2.61045C3.93251 4.05055 2.2524 6.09751 1.26021 8.49249C0.26802 10.8875 0.00831467 13.5229 0.513938 16.0654C1.01956 18.608 2.2678 20.9436 4.10081 22.7767C5.93382 24.6099 8.26926 25.8583 10.8118 26.3641C13.3543 26.8699 15.9898 26.6104 18.3848 25.6184C20.7799 24.6264 22.827 22.9464 24.2672 20.791C25.7075 18.6355 26.4762 16.1014 26.4762 13.509C26.4763 11.7878 26.1374 10.0835 25.4789 8.49325C24.8203 6.90304 23.8549 5.45813 22.6379 4.24102C21.4209 3.02391 19.9761 2.05844 18.3859 1.39974C16.7957 0.741038 15.0914 0.402008 13.3702 0.402008ZM13.3702 24.977C11.1021 24.977 8.88484 24.3044 6.99894 23.0443C5.11303 21.7842 3.64315 19.9931 2.77516 17.8976C1.90718 15.8021 1.68007 13.4963 2.12257 11.2717C2.56506 9.04714 3.65728 7.00374 5.26111 5.39991C6.86494 3.79608 8.90834 2.70386 11.1329 2.26136C13.3575 1.81887 15.6633 2.04597 17.7588 2.91396C19.8543 3.78195 21.6454 5.25183 22.9055 7.13773C24.1656 9.02363 24.8382 11.2409 24.8382 13.509C24.8382 16.5505 23.63 19.4674 21.4793 21.6181C19.3286 23.7688 16.4117 24.977 13.3702 24.977Z" fill="black"/>
</svg>
