<svg width="21" height="20" viewBox="0 0 21 20" fill="none" xmlns="http://www.w3.org/2000/svg">
<path d="M20.747 18.5068L14.735 12.4948C15.9309 10.9259 16.486 8.96135 16.2881 6.99862C16.0902 5.0359 15.1541 3.22167 13.6691 1.92312C12.1841 0.624564 10.2612 -0.0613096 8.28958 0.00430885C6.318 0.0699272 4.44495 0.88214 3.04959 2.27656C1.65423 3.67097 0.84079 5.54344 0.773834 7.51497C0.706879 9.48651 1.39145 11.4098 2.689 12.8957C3.98654 14.3816 5.80014 15.319 7.76273 15.5182C9.72531 15.7175 11.6903 15.1636 13.2599 13.9688L19.273 19.9818L20.747 18.5068ZM3.75198 7.8068C3.75198 6.85345 4.03469 5.92152 4.56436 5.12885C5.09403 4.33618 5.84689 3.71839 6.72769 3.35361C7.60849 2.98882 8.57771 2.89343 9.51273 3.07949C10.4477 3.26555 11.3066 3.72471 11.9806 4.3989C12.6547 5.07309 13.1136 5.93203 13.2995 6.86708C13.4853 7.80214 13.3898 8.77131 13.0248 9.65203C12.6598 10.5328 12.0418 11.2855 11.2491 11.815C10.4563 12.3445 9.5243 12.627 8.57095 12.6268C7.93798 12.6267 7.31121 12.5019 6.72647 12.2595C6.14173 12.0172 5.61048 11.662 5.16299 11.2143C4.71551 10.7667 4.36055 10.2353 4.11844 9.65042C3.87633 9.06558 3.75185 8.43877 3.75198 7.8058V7.8068Z" fill="#101429"/>
</svg>
