<svg width="70" height="70" viewBox="0 0 70 70" fill="none" xmlns="http://www.w3.org/2000/svg">
<path d="M34.758 0.256836C27.8834 0.257034 21.1632 2.29575 15.4472 6.11523C9.73127 9.93472 5.27627 15.3634 2.6456 21.7148C0.0149262 28.0662 -0.673274 35.0551 0.668022 41.7976C2.00932 48.5401 5.31987 54.7334 10.181 59.5945C15.0422 64.4555 21.2357 67.7658 27.9782 69.1069C34.7208 70.448 41.7096 69.7596 48.0609 67.1288C54.4123 64.4979 59.8408 60.0428 63.6601 54.3268C67.4795 48.6107 69.518 41.8904 69.518 35.0157C69.5178 25.797 65.8554 16.9559 59.3367 10.4374C52.818 3.91883 43.9768 0.256836 34.758 0.256836ZM44.005 26.7628C43.2933 27.2691 42.4096 27.4721 41.5482 27.3269C40.6869 27.1818 39.9185 26.7004 39.412 25.9888L38.445 24.6298V55.7137C38.445 56.5874 38.098 57.4252 37.4802 58.043C36.8625 58.6607 36.0246 59.0078 35.151 59.0078C34.2774 59.0078 33.4395 58.6607 32.8218 58.043C32.2041 57.4252 31.857 56.5874 31.857 55.7137V23.9458L30.024 26.3118C29.4888 27.0023 28.7012 27.4518 27.8345 27.5616C26.9678 27.6714 26.093 27.4325 25.4025 26.8973C24.712 26.3621 24.2624 25.5745 24.1526 24.7078C24.0428 23.8411 24.2818 22.9662 24.817 22.2758L32.547 12.3008C32.584 12.2538 32.627 12.2158 32.666 12.1708C32.705 12.1258 32.759 12.0648 32.809 12.0138C32.92 11.9013 33.039 11.797 33.165 11.7018C33.192 11.6808 33.213 11.6548 33.241 11.6348C33.249 11.6288 33.258 11.6268 33.266 11.6208C33.4282 11.5079 33.6002 11.4097 33.78 11.3278C33.839 11.3008 33.9 11.2818 33.96 11.2588C34.0802 11.2111 34.203 11.1707 34.328 11.1378C34.406 11.1178 34.483 11.1008 34.561 11.0868C34.6779 11.0664 34.7957 11.0521 34.914 11.0438C34.989 11.0388 35.063 11.0298 35.138 11.0298C35.2919 11.0304 35.4456 11.0413 35.598 11.0627C35.635 11.0677 35.673 11.0629 35.711 11.0739C35.8829 11.1032 36.0521 11.1463 36.217 11.2028C36.232 11.2078 36.246 11.2158 36.261 11.2218C36.324 11.2438 36.384 11.2758 36.447 11.3018C36.5653 11.3512 36.6805 11.4077 36.792 11.4708C36.857 11.5078 36.919 11.5488 36.981 11.5908C37.0881 11.6632 37.1909 11.7417 37.289 11.8258C37.34 11.8698 37.389 11.9118 37.441 11.9598C37.5847 12.0962 37.7156 12.2454 37.832 12.4058L44.776 22.1658C45.0278 22.5182 45.2076 22.9168 45.3051 23.3389C45.4027 23.7609 45.416 24.1981 45.3444 24.6252C45.2728 25.0524 45.1176 25.4612 44.8878 25.8284C44.658 26.1955 44.358 26.5137 44.005 26.7648V26.7628Z" fill="#101429"/>
</svg>
