<svg width="81" height="82" viewBox="0 0 81 82" fill="none" xmlns="http://www.w3.org/2000/svg">
<path d="M40.7811 8.21533C35.023 8.21369 29.3697 9.75479 24.4091 12.6783C19.4485 15.6019 15.3617 19.8011 12.5739 24.8392C9.78608 29.8774 8.39898 35.5704 8.55693 41.3263C8.71488 47.0822 10.412 52.6906 13.472 57.5682L14.2381 58.7872L10.9831 70.6733L23.178 67.4733L24.355 68.1733C29.3206 71.1124 34.9848 72.6631 40.7551 72.6633H40.768C49.3145 72.6649 57.5116 69.2714 63.556 63.2292C69.6003 57.1871 72.997 48.9913 72.9986 40.4448C73.0002 31.8984 69.6065 23.7013 63.5644 17.6569C57.5222 11.6125 49.3265 8.21582 40.7801 8.21423L40.7811 8.21533ZM59.735 54.2743C58.928 56.5363 55.0581 58.6013 53.1971 58.8743C51.1615 59.222 49.0728 59.0904 47.097 58.4902C45.2216 57.9082 43.3784 57.2273 41.575 56.4503C31.858 52.2563 25.511 42.4752 25.027 41.8282C24.543 41.1812 21.0721 36.5773 21.0721 31.8113C21.0449 30.303 21.3323 28.8057 21.9159 27.4147C22.4996 26.0237 23.3668 24.7696 24.4621 23.7323C24.7858 23.3631 25.1824 23.0649 25.6269 22.8563C26.0714 22.6477 26.5541 22.5333 27.045 22.5203C27.691 22.5203 28.337 22.5263 28.902 22.5543C29.496 22.5843 30.295 22.3283 31.081 24.2173C31.888 26.1553 33.826 30.9172 34.068 31.4072C34.2223 31.6613 34.3105 31.95 34.3246 32.2469C34.3388 32.5439 34.2783 32.8397 34.149 33.1073C33.9045 33.6893 33.5782 34.2334 33.18 34.7233C32.695 35.2883 32.163 35.9853 31.727 36.4233C31.242 36.9063 30.737 37.4303 31.302 38.4003C32.7569 40.8903 34.5731 43.1509 36.6911 45.1083C38.9889 47.1508 41.6249 48.7775 44.481 49.9153C45.449 50.4003 46.015 50.3152 46.581 49.6722C47.147 49.0292 49.003 46.8453 49.649 45.8723C50.295 44.8993 50.941 45.0643 51.829 45.3883C52.717 45.7123 57.479 48.0533 58.448 48.5383C59.417 49.0233 60.062 49.2663 60.304 49.6693C60.546 50.0723 60.542 52.0123 59.731 54.2743H59.735Z" fill="#5EA538"/>
<path d="M58.444 48.5383C57.475 48.0533 52.712 45.7113 51.825 45.3883C50.938 45.0653 50.2911 44.9033 49.6451 45.8723C48.9991 46.8413 47.1451 49.0232 46.5771 49.6722C46.0091 50.3212 45.447 50.4003 44.477 49.9153C41.6209 48.7775 38.9849 47.1508 36.6871 45.1083C34.569 43.1509 32.7529 40.8903 31.298 38.4003C30.733 37.4303 31.2381 36.9063 31.7231 36.4233C32.1591 35.9893 32.6911 35.2923 33.1761 34.7233C33.5743 34.2334 33.9006 33.6893 34.1451 33.1073C34.2744 32.8397 34.3348 32.5439 34.3206 32.2469C34.3065 31.95 34.2182 31.6613 34.064 31.4072C33.822 30.9222 31.8841 26.1553 31.0771 24.2173C30.2911 22.3283 29.492 22.5843 28.898 22.5543C28.333 22.5263 27.6871 22.5203 27.0411 22.5203C26.5502 22.5333 26.0674 22.6477 25.6229 22.8563C25.1783 23.0649 24.7818 23.3631 24.4581 23.7323C23.3628 24.7696 22.4957 26.0237 21.912 27.4147C21.3284 28.8057 21.0409 30.303 21.068 31.8113C21.068 36.5773 24.539 41.1822 25.023 41.8282C25.507 42.4742 31.854 52.2563 41.571 56.4503C43.3743 57.2273 45.2177 57.9082 47.0931 58.4902C49.0689 59.0904 51.1575 59.222 53.193 58.8743C55.054 58.5963 58.924 56.5313 59.731 54.2743C60.538 52.0173 60.5381 50.0743 60.2961 49.6743C60.0541 49.2743 59.412 49.0233 58.444 48.5383Z" fill="white"/>
<path d="M40.7679 1.66528C33.9655 1.66672 27.2831 3.45763 21.3916 6.85828C15.5001 10.2589 10.6069 15.1496 7.20325 21.0393C3.79955 26.929 2.00508 33.6106 2.00012 40.4131C1.99517 47.2156 3.77982 53.8996 7.17493 59.7943L1.67493 79.8773L22.2269 74.4883C27.9115 77.5829 34.2806 79.2046 40.7529 79.2053H40.7689C51.0514 79.2053 60.9127 75.1206 68.1835 67.8499C75.4543 60.5791 79.5389 50.7177 79.5389 40.4353C79.5389 30.1529 75.4543 20.2915 68.1835 13.0208C60.9127 5.74997 51.0514 1.66528 40.7689 1.66528H40.7679ZM40.7679 72.6603H40.755C34.9848 72.6601 29.3206 71.1094 24.355 68.1703L23.178 67.4703L10.983 70.6703L14.238 58.7843L13.4719 57.5653C9.67553 51.5134 7.99786 44.3716 8.70264 37.2623C9.40741 30.1531 12.4547 23.4796 17.3655 18.2909C22.2762 13.1022 28.772 9.69262 35.8317 8.5979C42.8914 7.50318 50.1147 8.78549 56.3662 12.2433C62.6177 15.7011 67.543 21.1383 70.3677 27.7002C73.1924 34.2621 73.7564 41.5766 71.9711 48.494C70.1858 55.4114 66.1524 61.5395 60.5049 65.9148C54.8574 70.2901 47.916 72.6647 40.772 72.6653L40.7679 72.6603Z" fill="white"/>
<path d="M0.0510254 81.4883L5.95093 59.9513C2.5485 53.8769 0.794128 47.0182 0.861816 40.0562C0.929505 33.0941 2.8169 26.2709 6.33679 20.2638C9.85669 14.2567 14.8866 9.27484 20.9271 5.81262C26.9676 2.3504 33.8086 0.528374 40.771 0.527344C46.8311 0.52848 52.8114 1.90957 58.2583 4.56592C63.7052 7.22227 68.4756 11.0841 72.2079 15.8585C75.9402 20.6329 78.5363 26.1945 79.7992 32.1216C81.0621 38.0486 80.9587 44.1855 79.4969 50.0667C78.0352 55.9478 75.2533 61.4189 71.3624 66.0649C67.4715 70.711 62.5737 74.4099 57.0404 76.8813C51.5072 79.3528 45.4838 80.5318 39.4271 80.3289C33.3704 80.1259 27.4394 78.5466 22.084 75.7103L0.0510254 81.4883ZM40.7689 2.81128C34.1673 2.81321 27.6823 4.55172 21.965 7.85229C16.2476 11.1529 11.4991 15.8994 8.19604 21.6154C4.89303 27.3313 3.15173 33.8155 3.14697 40.4171C3.14222 47.0188 4.87417 53.5056 8.16895 59.2263L8.40698 59.6393L3.30701 78.2743L22.3829 73.2743L22.783 73.4902C27.8172 76.2312 33.4111 77.7859 39.1377 78.0355C44.8643 78.2852 50.5723 77.2234 55.8259 74.9309C61.0796 72.6385 65.74 69.1761 69.4517 64.808C73.1633 60.4399 75.8279 55.2816 77.2422 49.7268C78.6565 44.172 78.7831 38.3674 77.6123 32.7562C76.4415 27.145 74.0043 21.8755 70.4866 17.3497C66.9689 12.824 62.4637 9.16175 57.3149 6.64246C52.1662 4.12316 46.51 2.81344 40.778 2.81323L40.7689 2.81128ZM40.7689 73.8063H40.756C34.7802 73.8065 28.9142 72.2004 23.772 69.1562L23.007 68.7013L9.35901 72.2803L13.004 58.9703L12.504 58.1763C8.57181 51.9104 6.83327 44.5155 7.56189 37.1539C8.29051 29.7924 11.4449 22.8816 16.5292 17.5082C21.6134 12.1347 28.3391 8.60324 35.6492 7.46887C42.9592 6.33451 50.439 7.66167 56.9126 11.2416C63.3862 14.8215 68.4866 20.4512 71.412 27.2457C74.3373 34.0403 74.9217 41.6143 73.0734 48.7772C71.225 55.9401 67.0487 62.2856 61.2009 66.8163C55.3531 71.3469 48.1655 73.8058 40.7679 73.8063H40.7689ZM23.35 66.2493L24.938 67.1913C29.7275 70.0266 35.1911 71.5225 40.757 71.5223L40.7689 72.6643V71.5223C47.6589 71.5215 54.3534 69.231 59.7998 65.011C65.2462 60.791 69.1359 54.8808 70.8574 48.2094C72.5789 41.5379 72.0346 34.4834 69.3101 28.155C66.5855 21.8266 61.8352 16.583 55.8059 13.2484C49.7766 9.91385 42.8102 8.67745 36.0016 9.73352C29.193 10.7896 22.9284 14.0783 18.1925 19.0826C13.4566 24.087 10.5181 30.5231 9.83862 37.3795C9.15918 44.2359 10.7774 51.1238 14.439 56.9603L15.473 58.6042L12.6069 69.0673L23.35 66.2493Z" fill="#5EA538"/>
</svg>
