<svg width="42" height="25" viewBox="0 0 42 25" fill="none" xmlns="http://www.w3.org/2000/svg">
<path d="M0 0.825928V22.547L12.9648 11.6289L0 0.825928Z" fill="white"/>
<path d="M27.0381 12.584L22.8711 16.0549C22.2301 16.6 21.4162 16.8994 20.5747 16.8994C19.7332 16.8994 18.9193 16.6 18.2783 16.0549L14.1123 12.584L0.473145 24.0699C0.437614 24.0943 0.40034 24.1157 0.361328 24.1339C0.472397 24.2058 0.601128 24.2461 0.733398 24.25H40.4165C40.5488 24.2461 40.677 24.2059 40.7881 24.1339C40.7494 24.1157 40.7124 24.0943 40.6772 24.0699L27.0381 12.584Z" fill="white"/>
<path d="M21.9316 14.9259L39.8477 0H1.30273L19.2188 14.9259C19.5971 15.2485 20.078 15.4257 20.5752 15.4257C21.0724 15.4257 21.5533 15.2485 21.9316 14.9259Z" fill="white"/>
<path d="M41.1519 22.547V0.825928L28.1855 11.626L41.1519 22.547Z" fill="white"/>
</svg>
