<svg width="41" height="42" viewBox="0 0 41 42" fill="none" xmlns="http://www.w3.org/2000/svg">
<path d="M27.9728 34.3654C27.7608 34.5773 27.4887 34.7188 27.1935 34.7705C26.8982 34.8222 26.5943 34.7817 26.3229 34.6544C17.6399 30.567 10.6535 23.5804 6.56605 14.8973C6.43848 14.626 6.39762 14.3219 6.44935 14.0266C6.50107 13.7313 6.64292 13.4591 6.85511 13.2473L10.9357 9.16638L9.07483 0.484375C7.63378 0.640791 6.24337 1.10577 4.99818 1.84778C3.75298 2.58979 2.6824 3.59147 1.85901 4.78442C0.911153 6.1167 0.30294 7.66033 0.0875305 9.28113C-0.127879 10.9019 0.0557081 12.5508 0.622687 14.0844C2.82807 20.1771 6.3466 25.7104 10.9284 30.2921C15.5101 34.8739 21.0432 38.392 27.1359 40.5974C28.6695 41.1644 30.3183 41.3481 31.9391 41.1327C33.5599 40.9173 35.1034 40.3092 36.4357 39.3613C37.6285 38.5378 38.6302 37.4671 39.3722 36.2219C40.1142 34.9767 40.5794 33.5864 40.736 32.1454L32.0538 30.2844L27.9728 34.3654Z" fill="white"/>
</svg>
