<svg xmlns="http://www.w3.org/2000/svg" viewBox="0 0 17.69 17.54"><defs><style>.cls-1,.cls-3{fill:#0d1139;}.cls-1{fill-rule:evenodd;}.cls-2{fill:#323031;}.cls-4{fill:#fff;}</style></defs><title>fb</title><g id="Capa_2" data-name="Capa 2"><g id="Capa_1-2" data-name="Capa 1"><path class="cls-1" d="M0,0V17.54H17.69V0ZM4.48,5.53a13,13,0,0,1,8.71,0,2.88,2.88,0,0,1,.57,1.6,3.65,3.65,0,0,1-2.5-.32c0-.5-.39-.78-1.4-.89A10,10,0,0,0,7.22,6c-.67.12-.8.51-.79.79a3.25,3.25,0,0,1-2.55.32A4.47,4.47,0,0,1,4.48,5.53ZM3.89,7.39a3,3,0,0,0,2.52-.26s.28,1.21-1.15,1.36S3.86,8,3.89,7.39Zm8.76,5.37H5V11.44a3.11,3.11,0,0,1,.41-1.34c.4-.71,1.47-2.4,1.47-2.4l0-1H8v.73H9.62V6.7h1.15v1l1.52,2.43a2.19,2.19,0,0,1,.36,1.09Zm-.22-4.27C11,8.34,11.28,7.13,11.28,7.13a3,3,0,0,0,2.52.26C13.83,8,13.85,8.65,12.43,8.49Z"/><rect class="cls-2" x="8.44" y="8.26" width="0.73" height="0.54"/><rect class="cls-2" x="8.44" y="9.15" width="0.73" height="0.54"/><rect class="cls-2" x="7.4" y="8.26" width="0.73" height="0.54"/><rect class="cls-2" x="7.4" y="10.04" width="0.73" height="0.54"/><rect class="cls-2" x="9.46" y="8.26" width="0.73" height="0.54"/><rect class="cls-2" x="9.46" y="10.04" width="0.73" height="0.54"/><rect class="cls-2" x="9.46" y="9.15" width="0.73" height="0.54"/><rect class="cls-3" x="2.4" y="2.21" width="12.31" height="12.54"/><path class="cls-4" d="M11.19,10.47l.27-2.08H9.41V7.07c0-.6.16-1,1-1h1.1V4.21a12.85,12.85,0,0,0-1.6-.09A2.5,2.5,0,0,0,7.26,6.86V8.39H5.47v2.08H7.26v5.19a7.61,7.61,0,0,0,2.15-.34V10.47Z"/></g></g></svg>