<svg xmlns="http://www.w3.org/2000/svg" viewBox="0 0 151.36 77.26"><defs><style>.cls-1{fill:#0d1139;}</style></defs><title>Logo</title><g id="Capa_2" data-name="Capa 2"><g id="Capa_1-2" data-name="Capa 1"><path class="cls-1" d="M47.23,11.65l1.56-.5c0,3.2,0,6.41,0,9.62-.08.46.41.66.64,1a1.86,1.86,0,0,1-.44,2.6,7.81,7.81,0,0,0,.63,5.32,5.7,5.7,0,0,0,1.79,2,.41.41,0,0,1,0,.62,3.9,3.9,0,0,1-2.69,1.26,3.34,3.34,0,0,1-2.18-1.67,4,4,0,0,1-.68-2.06,18.44,18.44,0,0,1,.93-5.4,2.21,2.21,0,0,1-.71-1.77,1.79,1.79,0,0,1,1.09-1.47C47.26,18,47.19,14.81,47.23,11.65Z"/><path class="cls-1" d="M40.58,12.66c-5,1.65-10.09,3.33-15.13,5-.52.14-1-.17-1.53-.3-2.63-.84-5.27-1.69-7.91-2.51-1.94-.64-3.89-1.22-5.83-1.86l-8.1-2.57L.19,9.81a.28.28,0,0,1,0-.53C8.43,6.16,16.73,3.16,25,0a.21.21,0,0,1,.19,0c3.21,1.14,6.35,2.45,9.54,3.62L50.94,9.25a.28.28,0,0,1,0,.53Z"/><path class="cls-1" d="M9.64,14.08c1.41.39,2.8.86,4.2,1.27,3.58,1.15,7.19,2.21,10.77,3.36.52.22,1.05-.07,1.55-.21q7-2.19,13.93-4.35l.3-.08c0,3.51,0,7,0,10.54l-.28-.13A11.4,11.4,0,0,0,32.26,22a11.66,11.66,0,0,0-7.21,3.91A12.85,12.85,0,0,0,17.77,22a10.44,10.44,0,0,0-7.52,2.25l-.52.49c-.11-1,0-1.93-.06-2.89C9.66,19.27,9.71,16.67,9.64,14.08Z"/><path class="cls-1" d="M11.42,25.81a8.29,8.29,0,0,1,6.51-1.21,14.65,14.65,0,0,1,7.17,4.34,13.72,13.72,0,0,1,8.38-4.53,8.44,8.44,0,0,1,6.05,1.95,12.57,12.57,0,0,1,3.91,5.78,2,2,0,0,1,1.26.59,5.44,5.44,0,0,1,.11,2.57,6.08,6.08,0,0,1,1.63.91,2.27,2.27,0,0,1-.06.25l.16-.2a8.71,8.71,0,0,1,2.27,8.15,9.8,9.8,0,0,1-3.08,5A17.77,17.77,0,0,1,48.83,58a21.77,21.77,0,0,1-.36,6,13.18,13.18,0,0,1-4.89,7.75,23.6,23.6,0,0,1-8.24,4,42.58,42.58,0,0,1-9.91,1.5,41.87,41.87,0,0,1-7.16-.71,28.94,28.94,0,0,1-9.52-3.36A14.78,14.78,0,0,1,2.8,67.08a17.62,17.62,0,0,1-1.46-8.14,17.79,17.79,0,0,1,3.08-9.38,11.3,11.3,0,0,1-2.33-2.87A9.16,9.16,0,0,1,2,38.29,6.13,6.13,0,0,1,5.5,35.2a6.56,6.56,0,0,1,0-2.12,1.51,1.51,0,0,1,1.28-.91A12.45,12.45,0,0,1,11.42,25.81ZM25.1,29a16.43,16.43,0,0,0-5.79-2.82,7.35,7.35,0,0,0-5.52.55,9.58,9.58,0,0,0-4.07,5.37,56.49,56.49,0,0,1,9.28.47,39.62,39.62,0,0,0,6.25.61,22.09,22.09,0,0,0,4-.33,63.56,63.56,0,0,1,11.28-.78,10.28,10.28,0,0,0-3.43-4.93,6.75,6.75,0,0,0-4.79-1.21A15.41,15.41,0,0,0,25.1,29ZM11,35A2.71,2.71,0,0,0,9.63,37.4a9.66,9.66,0,0,0,2.8,4.71A21.21,21.21,0,0,0,15,44.05a5.49,5.49,0,0,0,4-1.09A6.74,6.74,0,0,0,21.1,38.5a3.37,3.37,0,0,0-1.71-3.31,8.87,8.87,0,0,0-4.82-.84A7.59,7.59,0,0,0,11,35Zm22.67-.66a5.84,5.84,0,0,0-3.49,1.35,3.52,3.52,0,0,0-.93,3.08A6.44,6.44,0,0,0,31.29,43,5.14,5.14,0,0,0,35.17,44a11.15,11.15,0,0,0,1.41-.94,10,10,0,0,0,4.05-5.86,2.41,2.41,0,0,0-.55-1.55,3.93,3.93,0,0,0-2.6-1.22A19.62,19.62,0,0,0,33.65,34.38Zm-10,2.77c-.51.57-.4,1.39-.54,2.09a8.14,8.14,0,0,1-3.47,5.68,7.43,7.43,0,0,1-5.1.86,19,19,0,0,0-7,7.74,14.45,14.45,0,0,0-.56,9.85A7.14,7.14,0,0,0,8.35,66a13.75,13.75,0,0,0,5.82,3.78,35.18,35.18,0,0,0,11.09,1.93,35.92,35.92,0,0,0,10.23-1.74,13.68,13.68,0,0,0,6.68-4.33A10.45,10.45,0,0,0,43.88,60a13.71,13.71,0,0,0-2.64-9.09,20.76,20.76,0,0,0-5.47-5.06,3.37,3.37,0,0,0-1.05,0,6.64,6.64,0,0,1-5.57-2.26,9.27,9.27,0,0,1-2.07-5.29A2.12,2.12,0,0,0,26.55,37,2,2,0,0,0,23.64,37.15ZM5.54,42.32A4.71,4.71,0,0,0,7.38,46.1C8,45.51,8.66,45,9.32,44.46A13,13,0,0,1,6.69,39.6,3.29,3.29,0,0,0,5.54,42.32Zm37.75-2.13a12.52,12.52,0,0,1-2.41,4.26c.49.4,1,.77,1.46,1.21.14.1.25.29.43.29a4.62,4.62,0,0,0,.75-6.44"/><path class="cls-1" d="M32.5,36.74a1.77,1.77,0,0,1,1.58.71,1.79,1.79,0,0,1-.84,2.73,1.77,1.77,0,1,1-.74-3.44Z"/><path class="cls-1" d="M16.6,36.88a1.77,1.77,0,1,1,1.32,3.29,1.77,1.77,0,0,1-1.32-3.29Z"/><path class="cls-1" d="M15,61.2c.58.26,1.14.57,1.72.82a19.84,19.84,0,0,0,8.41,1.73,19.46,19.46,0,0,0,9.94-2.6,6.76,6.76,0,0,1-1.76,3.4A10.87,10.87,0,0,1,26.34,68a11.6,11.6,0,0,1-8.94-2.75A7.93,7.93,0,0,1,15,61.2Z"/><path class="cls-1" d="M20.48,46.64c1.14-.35,2.07.6,2.71,1.4a4.94,4.94,0,0,1,.68,1.74,4.22,4.22,0,0,1-3.21-1.43A1.33,1.33,0,0,1,20.48,46.64Z"/><path class="cls-1" d="M27.73,47.27a2.1,2.1,0,0,1,2-.63c.57.63.12,1.47-.42,2a4.42,4.42,0,0,1-2.95,1.22A4.42,4.42,0,0,1,27.73,47.27Z"/><path class="cls-1" d="M65.29,29.13H61.78c-1.16,0-1.73-.5-1.73-1.52V18.86c0-1,.57-1.52,1.73-1.52h3.51a4.59,4.59,0,0,1,4,3.2,7,7,0,0,1,0,5.4A4.58,4.58,0,0,1,65.29,29.13Zm1.32-6c0-2.22-.83-3.35-2.47-3.41h-.63v7h.63Q66.62,26.47,66.61,23.13Z"/><path class="cls-1" d="M77.8,24.12l1.73,2.27a1.75,1.75,0,0,1,.39,1.08,1.49,1.49,0,0,1-.7,1.12,2.17,2.17,0,0,1-1.29.53,1.43,1.43,0,0,1-1.11-.7L74,24.66v2.95c0,1-.57,1.52-1.73,1.52s-1.73-.5-1.73-1.52V18.86c0-1,.58-1.52,1.73-1.52H76.2a3,3,0,0,1,2.41,1.12,3.6,3.6,0,0,1,1,2.39A3.46,3.46,0,0,1,77.8,24.12ZM74,19.72v2.69h1q1.47,0,1.47-1.35c0-.89-.49-1.34-1.47-1.34Z"/><path class="cls-1" d="M73.62,37.74V54.66q0,3.42-3.89,3.42t-3.9-3.42V37.74H61.9q-3.15,0-3.15-3.13c0-2.08,1-3.13,3.15-3.13H77.6c2.09,0,3.14,1.05,3.14,3.13s-1,3.13-3.14,3.13Z"/><path class="cls-1" d="M86.31,58c-2.6,0-3.89-1.14-3.89-3.42V34.91c0-2.29,1.29-3.43,3.89-3.43h9.44c2,0,3,1.05,3,3.13s-1,3.13-3,3.13H90.21v3.81H95c2,0,3,1.05,3,3.15s-1,3.15-3,3.15H90.21v3.93h5.54c2,0,3,1,3,3.13s-1,3.13-3,3.13Z"/><path class="cls-1" d="M111.36,58.12a22.92,22.92,0,0,1-7.35-1.2q-3.56-1.2-3.56-4.29c0-2.06.93-3.09,2.8-3.09a19.81,19.81,0,0,1,3.28,1.08,14.51,14.51,0,0,0,5,1.08c1.4,0,2.09-.59,2.09-1.77A2.23,2.23,0,0,0,112.16,48a25.91,25.91,0,0,0-4-1.63,17.32,17.32,0,0,1-3.22-1.27,6.54,6.54,0,0,1-3-5.8,8.25,8.25,0,0,1,8.26-8.49,20.63,20.63,0,0,1,5.78.73q4.61,1.45,3.71,4.3c-.59,1.89-1.69,2.78-3.27,2.65a18,18,0,0,1-2.36-.81,11,11,0,0,0-3.81-.81,1.46,1.46,0,0,0-1.66,1.64c0,.69.47,1.29,1.4,1.8A29.85,29.85,0,0,0,114,42a17.28,17.28,0,0,1,3.24,1.36,6.88,6.88,0,0,1,3,6.09,8.24,8.24,0,0,1-2.59,6.41A9,9,0,0,1,111.36,58.12Z"/><path class="cls-1" d="M129.7,54.62c0,2.28-1.29,3.42-3.89,3.42s-3.89-1.14-3.89-3.42V34.91c0-2.29,1.29-3.43,3.89-3.43s3.89,1.14,3.89,3.43Z"/><path class="cls-1" d="M142.28,58.12a22.81,22.81,0,0,1-7.34-1.2c-2.38-.8-3.56-2.23-3.56-4.29s.93-3.09,2.79-3.09a19.75,19.75,0,0,1,3.29,1.08,14.46,14.46,0,0,0,5,1.08q2.1,0,2.1-1.77A2.24,2.24,0,0,0,143.08,48a25.91,25.91,0,0,0-4-1.63,17.64,17.64,0,0,1-3.22-1.27,6.54,6.54,0,0,1-3-5.8,8.25,8.25,0,0,1,8.26-8.49,20.7,20.7,0,0,1,5.79.73q4.61,1.45,3.7,4.3c-.59,1.89-1.68,2.78-3.27,2.65a18.62,18.62,0,0,1-2.36-.81,11,11,0,0,0-3.81-.81,1.46,1.46,0,0,0-1.66,1.64q0,1,1.41,1.8a29.62,29.62,0,0,0,4,1.65,17.17,17.17,0,0,1,3.25,1.36,6.88,6.88,0,0,1,3,6.09,8.25,8.25,0,0,1-2.6,6.41A9,9,0,0,1,142.28,58.12Z"/><path class="cls-1" d="M60.52,67.26H59.44c-.35,0-.53-.16-.53-.47V64.11c0-.31.18-.46.53-.46h1.08a1.39,1.39,0,0,1,1.22,1,2.15,2.15,0,0,1,.17.82,2.2,2.2,0,0,1-.17.83A1.41,1.41,0,0,1,60.52,67.26Zm.4-1.84q0-1-.75-1H60v2.14h.2C60.67,66.47,60.93,66.1,60.92,65.42Z"/><path class="cls-1" d="M62.66,67.26c-.35,0-.53-.16-.53-.47V64.11c0-.31.18-.46.53-.46H64a.37.37,0,0,1,.41.42.38.38,0,0,1-.41.43h-.76V65h.65c.28,0,.41.14.41.42s-.13.43-.41.43h-.65v.54H64a.37.37,0,0,1,.41.42c0,.29-.14.43-.41.43Z"/><path class="cls-1" d="M66.07,67.27a3.08,3.08,0,0,1-1-.16.61.61,0,0,1-.48-.59c0-.28.12-.42.38-.42a3,3,0,0,1,.44.15,2,2,0,0,0,.68.15c.19,0,.29-.08.29-.24a.31.31,0,0,0-.2-.27,3.93,3.93,0,0,0-.54-.22,1.86,1.86,0,0,1-.44-.17.9.9,0,0,1-.41-.79,1.08,1.08,0,0,1,.34-.84,1.1,1.1,0,0,1,.78-.32,3,3,0,0,1,.79.1c.42.14.59.33.51.59s-.23.38-.45.36l-.32-.11a1.62,1.62,0,0,0-.52-.11.19.19,0,0,0-.22.22c0,.1.06.18.19.25a4.14,4.14,0,0,0,.54.22,2,2,0,0,1,.44.19.94.94,0,0,1,.41.83,1.15,1.15,0,0,1-.35.87A1.23,1.23,0,0,1,66.07,67.27Z"/><path class="cls-1" d="M68.6,66.62l-.1.27a.47.47,0,0,1-.45.37.53.53,0,0,1-.45-.19.61.61,0,0,1-.13-.35.8.8,0,0,1,.06-.3L68.64,64a.53.53,0,0,1,1,0l1.11,2.41a.82.82,0,0,1,.07.31.63.63,0,0,1-.14.34.48.48,0,0,1-.44.19.47.47,0,0,1-.46-.37l-.1-.27Zm.78-.85-.23-.63-.24.63Z"/><path class="cls-1" d="M73.27,65.72l.53.7a.52.52,0,0,1,.12.33.45.45,0,0,1-.21.34.68.68,0,0,1-.4.17A.48.48,0,0,1,73,67l-.86-1.15v.9c0,.31-.17.47-.53.47s-.53-.16-.53-.47V64.11c0-.31.18-.46.53-.46h1.2a.93.93,0,0,1,.74.34,1.07,1.07,0,0,1,.3.73A1,1,0,0,1,73.27,65.72Zm-1.16-1.35v.83h.31c.3,0,.45-.14.45-.41s-.15-.42-.45-.42Z"/><path class="cls-1" d="M76.37,65.72l.53.7a.52.52,0,0,1,.12.33.43.43,0,0,1-.22.34.66.66,0,0,1-.39.17.46.46,0,0,1-.34-.22l-.86-1.15v.9c0,.31-.18.47-.53.47s-.53-.16-.53-.47V64.11c0-.31.18-.46.53-.46h1.2a.93.93,0,0,1,.74.34,1.11,1.11,0,0,1,.29.73A1.06,1.06,0,0,1,76.37,65.72Zm-1.16-1.35v.83h.3c.3,0,.45-.14.45-.41s-.15-.42-.45-.42Z"/><path class="cls-1" d="M81,65.42a1.77,1.77,0,0,1-.54,1.35,2.08,2.08,0,0,1-2.75,0,2,2,0,0,1,0-2.71,2.09,2.09,0,0,1,2.76,0A1.8,1.8,0,0,1,81,65.42Zm-1.27-.67a.81.81,0,0,0-.64-.27.82.82,0,0,0-.64.27,1,1,0,0,0-.25.67,1,1,0,0,0,.25.67.84.84,0,0,0,.64.26.81.81,0,0,0,.64-.27,1,1,0,0,0,0-1.33Z"/><path class="cls-1" d="M83.15,67.26H81.79c-.35,0-.53-.16-.53-.47V64.11c0-.31.18-.46.53-.46s.53.15.53.46v2.3h.83q.33,0,.33.42C83.48,67.12,83.37,67.26,83.15,67.26Z"/><path class="cls-1" d="M85.64,67.26H84.28c-.35,0-.53-.16-.53-.47V64.11c0-.31.18-.46.53-.46s.53.15.53.46v2.3h.83q.33,0,.33.42C86,67.12,85.86,67.26,85.64,67.26Z"/><path class="cls-1" d="M90,65.42a1.74,1.74,0,0,1-.55,1.35,2.06,2.06,0,0,1-2.74,0,1.77,1.77,0,0,1-.54-1.35,1.84,1.84,0,0,1,.53-1.36,1.89,1.89,0,0,1,1.38-.52,1.86,1.86,0,0,1,1.38.52A1.81,1.81,0,0,1,90,65.42Zm-1.27-.67a.91.91,0,0,0-1.29,0,1,1,0,0,0-.24.67,1,1,0,0,0,.24.67.92.92,0,0,0,1.29,0,1,1,0,0,0,0-1.33Z"/><path class="cls-1" d="M93.25,64.8l.59-.79a.77.77,0,0,1,.58-.34.46.46,0,0,1,.43.18.58.58,0,0,1,.11.31.86.86,0,0,1-.1.33l-1.09,1.42v.88c0,.31-.18.47-.53.47s-.53-.16-.53-.47v-.88l-1.07-1.42a.71.71,0,0,1-.1-.33.58.58,0,0,1,.11-.31.45.45,0,0,1,.43-.18.74.74,0,0,1,.57.34Z"/><path class="cls-1" d="M98.73,65.72l.53.7a.52.52,0,0,1,.12.33.45.45,0,0,1-.21.34.71.71,0,0,1-.4.17.46.46,0,0,1-.34-.22l-.86-1.15v.9c0,.31-.18.47-.53.47s-.53-.16-.53-.47V64.11c0-.31.18-.46.53-.46h1.2A.93.93,0,0,1,99,64a1.14,1.14,0,0,1-.25,1.73Zm-1.16-1.35v.83h.31c.3,0,.45-.14.45-.41s-.15-.42-.45-.42Z"/><path class="cls-1" d="M100.14,67.26c-.36,0-.53-.16-.53-.47V64.11c0-.31.17-.46.53-.46h1.28c.28,0,.41.14.41.42s-.13.43-.41.43h-.75V65h.65a.37.37,0,0,1,.41.42c0,.29-.14.43-.41.43h-.65v.54h.75c.28,0,.41.14.41.42s-.13.43-.41.43Z"/><path class="cls-1" d="M103.55,67.27a3,3,0,0,1-1-.16.61.61,0,0,1-.49-.59c0-.28.13-.42.38-.42a2.54,2.54,0,0,1,.45.15,1.91,1.91,0,0,0,.67.15c.19,0,.29-.08.29-.24a.31.31,0,0,0-.2-.27,3.93,3.93,0,0,0-.54-.22,2.07,2.07,0,0,1-.44-.17.89.89,0,0,1-.4-.79,1.08,1.08,0,0,1,.34-.84,1.1,1.1,0,0,1,.78-.32,3.1,3.1,0,0,1,.79.1c.41.14.58.33.5.59s-.23.38-.44.36l-.33-.11a1.51,1.51,0,0,0-.51-.11c-.15,0-.23.07-.23.22s.06.18.19.25a5.81,5.81,0,0,0,.54.22,1.8,1.8,0,0,1,.44.19.91.91,0,0,1,.41.83,1.12,1.12,0,0,1-.35.87A1.2,1.2,0,0,1,103.55,67.27Z"/><path class="cls-1" d="M108.77,65.42a1.77,1.77,0,0,1-.54,1.35,1.93,1.93,0,0,1-1.38.52,1.89,1.89,0,0,1-1.37-.52,1.77,1.77,0,0,1-.54-1.35,1.81,1.81,0,0,1,.54-1.36,1.86,1.86,0,0,1,1.38-.52,1.89,1.89,0,0,1,1.38.52A1.84,1.84,0,0,1,108.77,65.42Zm-1.27-.67a.81.81,0,0,0-.64-.27.85.85,0,0,0-.65.27,1,1,0,0,0-.24.67,1,1,0,0,0,.24.67.87.87,0,0,0,.65.26.82.82,0,0,0,.64-.27,1,1,0,0,0,0-1.33Z"/><path class="cls-1" d="M110.89,67.26h-1.36c-.36,0-.53-.16-.53-.47V64.11c0-.31.17-.46.53-.46s.53.15.53.46v2.3h.83q.33,0,.33.42C111.22,67.12,111.11,67.26,110.89,67.26Z"/><path class="cls-1" d="M114.33,66.28a.82.82,0,0,1-.43.76,2.09,2.09,0,0,1-2,0,.82.82,0,0,1-.43-.76V64.11c0-.31.17-.46.53-.46s.53.15.53.46v2c0,.21.12.31.36.31s.36-.1.36-.31v-2c0-.31.18-.46.53-.46s.53.15.53.46Z"/><path class="cls-1" d="M117.92,66.61c0,.13-.11.28-.31.44a2,2,0,0,1-1.14.24,1.87,1.87,0,0,1-1.37-.52,1.77,1.77,0,0,1-.54-1.35,1.81,1.81,0,0,1,.54-1.36,1.86,1.86,0,0,1,1.38-.52,1.92,1.92,0,0,1,1.14.24c.2.16.3.31.3.44a.58.58,0,0,1-.13.35.38.38,0,0,1-.28.15,1.6,1.6,0,0,1-.49-.12,1.64,1.64,0,0,0-.5-.12.81.81,0,0,0-.9.93c0,.63.3.94.9.94a1.64,1.64,0,0,0,.5-.12,1.6,1.6,0,0,1,.49-.12.38.38,0,0,1,.28.15A.58.58,0,0,1,117.92,66.61Z"/><path class="cls-1" d="M119.24,66.79c0,.31-.17.47-.53.47s-.53-.16-.53-.47V64.11c0-.31.18-.46.53-.46s.53.15.53.46Z"/><path class="cls-1" d="M123.3,65.42a1.77,1.77,0,0,1-.54,1.35,1.93,1.93,0,0,1-1.38.52,1.89,1.89,0,0,1-1.37-.52,1.77,1.77,0,0,1-.54-1.35,1.81,1.81,0,0,1,.54-1.36,1.86,1.86,0,0,1,1.38-.52,1.89,1.89,0,0,1,1.38.52A1.84,1.84,0,0,1,123.3,65.42ZM122,64.75a.81.81,0,0,0-.64-.27.85.85,0,0,0-.65.27,1,1,0,0,0-.24.67,1,1,0,0,0,.24.67.87.87,0,0,0,.65.26.82.82,0,0,0,.64-.27,1,1,0,0,0,0-1.33Z"/><path class="cls-1" d="M125.71,65.26V64.11c0-.31.18-.46.53-.46s.53.15.53.46v2.68c0,.31-.18.47-.53.47a.6.6,0,0,1-.47-.2l-1.18-1.42v1.15c0,.31-.18.47-.53.47s-.53-.16-.53-.47V64.11c0-.31.17-.46.53-.46a.5.5,0,0,1,.48.22Z"/><path class="cls-1" d="M129.43,66.79c0,.31-.18.47-.53.47s-.53-.16-.53-.47V64.11c0-.31.17-.46.53-.46s.53.15.53.46Z"/><path class="cls-1" d="M131.88,65.26V64.11c0-.31.17-.46.53-.46s.53.15.53.46v2.68c0,.31-.18.47-.53.47a.6.6,0,0,1-.47-.2l-1.19-1.42v1.15c0,.31-.17.47-.53.47s-.53-.16-.53-.47V64.11c0-.31.18-.46.53-.46a.52.52,0,0,1,.49.22Z"/><path class="cls-1" d="M135.19,64.5v2.3c0,.31-.18.46-.53.46s-.53-.15-.53-.46V64.5h-.54a.39.39,0,0,1-.43-.43.38.38,0,0,1,.43-.42h2.14a.38.38,0,0,1,.43.42.39.39,0,0,1-.43.43Z"/><path class="cls-1" d="M136.91,67.26c-.35,0-.53-.16-.53-.47V64.11c0-.31.18-.46.53-.46h1.29a.37.37,0,0,1,.41.42.38.38,0,0,1-.41.43h-.76V65h.65c.28,0,.41.14.41.42s-.13.43-.41.43h-.65v.54h.76a.37.37,0,0,1,.41.42c0,.29-.14.43-.41.43Z"/><path class="cls-1" d="M142.23,65.53v1a.67.67,0,0,1-.35.56,2.26,2.26,0,0,1-1.16.22,1.82,1.82,0,0,1-1.34-.52,1.77,1.77,0,0,1-.54-1.35,1.84,1.84,0,0,1,.53-1.36,1.78,1.78,0,0,1,1.29-.52,2.31,2.31,0,0,1,1.14.23c.26.16.4.31.4.45a.5.5,0,0,1-.14.36.38.38,0,0,1-.27.17,1.09,1.09,0,0,1-.39-.13,1.48,1.48,0,0,0-.69-.14.78.78,0,0,0-.64.26,1.08,1.08,0,0,0-.2.68,1,1,0,0,0,.24.67.83.83,0,0,0,.66.25c.28,0,.42-.11.42-.32a.22.22,0,0,0,0-.08H141c-.32,0-.49-.15-.49-.45s.17-.45.49-.45h.8C142.09,65,142.23,65.21,142.23,65.53Z"/><path class="cls-1" d="M144.72,65.72l.53.7a.52.52,0,0,1,.12.33.46.46,0,0,1-.22.34.66.66,0,0,1-.39.17.46.46,0,0,1-.34-.22l-.86-1.15v.9c0,.31-.18.47-.53.47s-.53-.16-.53-.47V64.11c0-.31.17-.46.53-.46h1.2A.91.91,0,0,1,145,64a1.07,1.07,0,0,1,.3.73A1.06,1.06,0,0,1,144.72,65.72Zm-1.16-1.35v.83h.3c.3,0,.45-.14.45-.41s-.15-.42-.45-.42Z"/><path class="cls-1" d="M146.69,66.62l-.11.27c-.09.25-.24.37-.44.37a.53.53,0,0,1-.45-.19.63.63,0,0,1-.14-.35.82.82,0,0,1,.07-.3l1.1-2.41a.54.54,0,0,1,.51-.36.53.53,0,0,1,.5.36l1.11,2.41a.67.67,0,0,1,.07.31.61.61,0,0,1-.13.34.51.51,0,0,1-.45.19.47.47,0,0,1-.45-.37l-.1-.27Zm.77-.85-.23-.63-.23.63Z"/><path class="cls-1" d="M151,67.26h-1.36c-.35,0-.53-.16-.53-.47V64.11c0-.31.18-.46.53-.46s.53.15.53.46v2.3H151q.33,0,.33.42C151.36,67.12,151.25,67.26,151,67.26Z"/></g></g></svg>