<svg xmlns="http://www.w3.org/2000/svg" viewBox="0 0 439.53 260.79"><defs><style>.cls-1{opacity:0.14;}.cls-2{fill:#141414;}</style></defs><title>marcaAgua</title><g id="Capa_2" data-name="Capa 2"><g id="Capa_1-2" data-name="Capa 1"><g class="cls-1"><path class="cls-2" d="M137.15,39.32c1.51-.56,3-1.15,4.53-1.7-.07,10.83,0,21.66,0,32.48-.23,1.57,1.18,2.24,1.85,3.31a6.94,6.94,0,0,1-1.28,8.77c-.83,6-.94,12.56,1.84,18a18.4,18.4,0,0,0,5.2,6.62,1.49,1.49,0,0,1,.1,2.08c-2.18,2.3-4.77,4.42-7.79,4.27-2.78-.44-4.89-3-6.35-5.64a15.19,15.19,0,0,1-2-7c-.1-6.21,1.25-12.29,2.72-18.21-1.23-1.65-2.42-3.7-2.06-6a6,6,0,0,1,3.15-5C137.23,60.68,137,50,137.15,39.32Z"/><path class="cls-2" d="M117.84,42.74C103.17,48.29,88.54,54,73.91,59.6c-1.53.49-3-.56-4.45-1-7.65-2.85-15.3-5.71-23-8.47C40.86,48,35.19,46,29.57,43.84Q17.82,39.47,6.05,35.17L.56,33.11a1,1,0,0,1,0-1.77c24-10.55,48.07-20.69,72-31.28a.73.73,0,0,1,.56,0c9.3,3.86,18.43,8.28,27.7,12.25l47.13,18.91a1,1,0,0,1-.05,1.79Z"/><path class="cls-2" d="M28,47.51c4.1,1.32,8.12,2.93,12.2,4.3,10.39,3.89,20.86,7.48,31.25,11.33,1.52.75,3-.22,4.51-.7,13.48-4.93,27-9.77,40.45-14.69l.89-.27c0,11.86,0,23.72,0,35.58l-.81-.43C110,77,101.85,73.42,93.66,74.37s-15.4,6.35-20.92,13.17C67,80.94,59.8,75.43,51.6,74.3c-7.8-1.17-15.67,2.12-21.82,7.58-.53.53-1,1.11-1.51,1.67-.33-3.24-.11-6.51-.18-9.76C28,65,28.19,56.27,28,47.51Z"/><path class="cls-2" d="M33.17,87.12A21.32,21.32,0,0,1,52.07,83c8,2.2,15.21,7.72,20.83,14.65,6.41-7.86,14.86-14.26,24.33-15.28,6.34-.7,12.66,1.94,17.56,6.57a43.44,43.44,0,0,1,11.35,19.5,5.56,5.56,0,0,1,3.67,2c1,2.73.5,5.79.32,8.65a18.27,18.27,0,0,1,4.73,3.07c0,.22-.13.64-.17.86l.45-.67c6.34,6.87,8.42,17.89,6.6,27.51a34,34,0,0,1-9,17,66.32,66.32,0,0,1,9,29,84.29,84.29,0,0,1-1,20.14,45.93,45.93,0,0,1-14.22,26.18c-7,6.48-15.36,10.71-23.92,13.56a108.37,108.37,0,0,1-28.79,5.08,105.7,105.7,0,0,1-20.78-2.41C43.42,256.29,33.87,252.9,25.4,247A47.37,47.37,0,0,1,8.12,226.41C4.64,217.89,3.64,208.29,3.89,199a66.51,66.51,0,0,1,9-31.67,37.38,37.38,0,0,1-6.78-9.69C1.91,149,2,138,5.74,129.25A19.14,19.14,0,0,1,16,118.8a25.19,25.19,0,0,1-.11-7.15,4.5,4.5,0,0,1,3.72-3.08C22,100,26.72,92.21,33.17,87.12Zm39.71,10.7C67.81,93.54,62.2,90,56.07,88.3c-5.29-1.62-11.21-1.39-16,1.86C34.19,94,30.35,101,28.22,108.29a142.18,142.18,0,0,1,26.94,1.57c6,.84,12,2.35,18.15,2.06a56.08,56.08,0,0,0,11.54-1.12,160.77,160.77,0,0,1,32.75-2.63c-1.95-6.43-5.18-12.55-10-16.63a17.52,17.52,0,0,0-13.92-4.1C86.09,88.44,79,92.64,72.88,97.82Zm-41,20.45a9.53,9.53,0,0,0-3.9,8,33.84,33.84,0,0,0,8.12,15.89,62.49,62.49,0,0,0,7.5,6.55A14.44,14.44,0,0,0,55.32,145c3.72-3.75,5.47-9.49,6-15,.42-4.45-1.55-9.07-5-11.2-4.22-2.82-9.26-3-14-2.83C38.78,116.1,35,116.16,31.87,118.27ZM97.72,116a15.69,15.69,0,0,0-10.15,4.56A13.21,13.21,0,0,0,84.88,131c.66,5.23,2.36,10.64,6,14.06a13.47,13.47,0,0,0,11.26,3.56,31.33,31.33,0,0,0,4.1-3.18A34.21,34.21,0,0,0,118,125.67c.23-1.93-.76-3.69-1.61-5.25-1.82-2.63-4.78-3.67-7.56-4.12A50.25,50.25,0,0,0,97.72,116Zm-29.08,9.34c-1.46,2-1.15,4.69-1.58,7.06C66,140,62.76,147.56,57,151.63c-4.38,3.2-9.79,3.79-14.81,2.9-8.48,6.6-16.24,15.14-20.43,26.13C17.65,191,17.5,203,20.11,213.89a25.81,25.81,0,0,0,4.13,8.76c4.34,6.17,10.62,9.89,16.9,12.73a89,89,0,0,0,32.22,6.52,91.16,91.16,0,0,0,29.69-5.85c7.34-2.92,14.64-7.3,19.41-14.63,3.52-5.4,4.5-12.31,5-18.89a52,52,0,0,0-7.67-30.69,64.57,64.57,0,0,0-15.9-17.09c-1-.35-2,.08-3,.07a18,18,0,0,1-16.17-7.62c-3.69-4.93-5.51-11.41-6-17.84A7.88,7.88,0,0,0,77.1,125,5.4,5.4,0,0,0,68.64,125.38ZM16.08,142.84a17.1,17.1,0,0,0,5.34,12.77c1.77-2,3.74-3.73,5.64-5.55a47,47,0,0,1-7.64-16.39C16.82,135.63,16.27,139.52,16.08,142.84Zm109.62-7.2c-1.31,5.35-4,10.08-7,14.39,1.42,1.36,2.93,2.6,4.25,4.09.4.33.7,1,1.25,1a16,16,0,0,0,5-12.87c-.19-2.78-1-6.92-2.81-8.88"/><path class="cls-2" d="M94.38,124A4.87,4.87,0,0,1,99,126.4c2,3,.77,8.14-2.45,9.21-2.83,1.33-6.4-1.07-6.73-4.62C89.17,127.68,91.46,124.16,94.38,124Z"/><path class="cls-2" d="M48.22,124.47c2.55-1.29,5.84.31,6.78,3.38s-.38,6.64-3,7.72c-2.73,1.35-6.25-.7-6.81-4.12A6.28,6.28,0,0,1,48.22,124.47Z"/><path class="cls-2" d="M43.5,206.58c1.69.88,3.31,1.92,5,2.77a50.7,50.7,0,0,0,24.42,5.82,50.54,50.54,0,0,0,28.85-8.77,24,24,0,0,1-5.11,11.46A30.11,30.11,0,0,1,76.5,229.45a30.55,30.55,0,0,1-26-9.28A27.64,27.64,0,0,1,43.5,206.58Z"/><path class="cls-2" d="M59.47,157.43c3.3-1.19,6,2,7.86,4.74a18.15,18.15,0,0,1,2,5.85c-3.56.23-6.92-1.88-9.31-4.83A5,5,0,0,1,59.47,157.43Z"/><path class="cls-2" d="M80.54,159.56c1.55-1.62,3.67-3,5.81-2.14,1.65,2.13.35,5-1.2,6.6-2.36,2.43-5.37,4.16-8.58,4.12A15.69,15.69,0,0,1,80.54,159.56Z"/><path class="cls-2" d="M189.59,98.33h-10.2q-5,0-5-5.13V63.67q0-5.13,5-5.13h10.2q8.39,1.13,11.56,10.79a27.22,27.22,0,0,1,0,18.22Q198,97.21,189.59,98.33Zm3.83-20.25q0-11.22-7.18-11.52h-1.83V90.14l1.83.06Q193.44,89.32,193.42,78.08Z"/><path class="cls-2" d="M225.93,81.41l5,7.67a6.59,6.59,0,0,1,1.11,3.65,5.12,5.12,0,0,1-2,3.76,5.89,5.89,0,0,1-3.73,1.81c-1.14,0-2.21-.79-3.22-2.38l-8.17-12.68v10q0,5.13-5,5.13t-5-5.13V63.67q0-5.13,5-5.13h11.36a8.4,8.4,0,0,1,7,3.76,13.25,13.25,0,0,1,2.79,8.06Q231.05,78.05,225.93,81.41Zm-11-14.85v9.08h2.89c2.84,0,4.26-1.52,4.26-4.54s-1.42-4.54-4.26-4.54Z"/><path class="cls-2" d="M213.79,127.38v57.1q0,11.55-11.31,11.55t-11.31-11.55v-57.1H179.74q-9.13,0-9.14-10.56t9.14-10.56h45.59q9.13,0,9.14,10.56t-9.14,10.56Z"/><path class="cls-2" d="M250.63,195.9q-11.31,0-11.31-11.55V117.82q0-11.55,11.31-11.56h27.42q8.79,0,8.8,10.56t-8.8,10.56H261.94v12.88h13.82q8.81,0,8.8,10.62t-8.8,10.63H261.94v13.28h16.11q8.79,0,8.8,10.55t-8.8,10.56Z"/><path class="cls-2" d="M323.38,196.17a58,58,0,0,1-21.34-4q-10.34-4.05-10.34-14.48t8.11-10.42q1.2,0,9.54,3.65t14.43,3.65q6.08,0,6.08-6,0-3.91-4.17-6.54a69.09,69.09,0,0,0-11.63-5.47c-5-1.91-8.08-3.34-9.33-4.32Q296,145.51,296,132.66t7.26-20.82Q310.38,104,320,104a51.93,51.93,0,0,1,16.8,2.45Q350.2,111.38,347.6,121t-9.52,8.93c-.42,0-2.7-.9-6.85-2.72a28.23,28.23,0,0,0-11.05-2.72c-3.22,0-4.83,1.83-4.83,5.51q0,3.53,4.08,6.07a77,77,0,0,0,11.51,5.58c4.95,2,8.1,3.55,9.43,4.62q8.79,6.9,8.8,20.55t-7.54,21.61A23.92,23.92,0,0,1,323.38,196.17Z"/><path class="cls-2" d="M376.64,184.35q0,11.55-11.31,11.55T354,184.35V117.82q0-11.55,11.31-11.56t11.31,11.56Z"/><path class="cls-2" d="M413.17,196.17a58,58,0,0,1-21.33-4q-10.35-4.05-10.34-14.48t8.11-10.42q1.2,0,9.54,3.65t14.42,3.65q6.09,0,6.08-6,0-3.91-4.17-6.54a68.93,68.93,0,0,0-11.62-5.47c-5-1.91-8.08-3.34-9.34-4.32q-8.68-6.71-8.68-19.55t7.25-20.82q7.08-7.83,16.74-7.83a51.91,51.91,0,0,1,16.79,2.45Q440,111.38,437.39,121t-9.51,8.93c-.42,0-2.7-.9-6.85-2.72A28.27,28.27,0,0,0,410,124.46c-3.22,0-4.82,1.83-4.82,5.51q0,3.53,4.08,6.07a76.51,76.51,0,0,0,11.51,5.58c4.95,2,8.09,3.55,9.42,4.62q8.8,6.9,8.8,20.55t-7.54,21.61A23.92,23.92,0,0,1,413.17,196.17Z"/><path class="cls-2" d="M175.74,227h-3.13a1.38,1.38,0,0,1-1.54-1.57v-9a1.38,1.38,0,0,1,1.54-1.57h3.13a4.27,4.27,0,0,1,3.54,3.3,8.38,8.38,0,0,1,0,5.59A4.27,4.27,0,0,1,175.74,227Zm1.17-6.2c0-2.3-.74-3.48-2.2-3.54h-.56v7.23l.56,0C176.18,224.35,176.92,223.11,176.91,220.82Z"/><path class="cls-2" d="M182,227a1.38,1.38,0,0,1-1.54-1.57v-9a1.38,1.38,0,0,1,1.54-1.57h3.73c.8,0,1.2.48,1.2,1.43s-.4,1.44-1.2,1.44H183.5v1.75h1.88c.8,0,1.2.48,1.2,1.45s-.4,1.44-1.2,1.44H183.5v1.81h2.19q1.2,0,1.2,1.44c0,.95-.4,1.43-1.2,1.43Z"/><path class="cls-2" d="M191.86,227.06a8,8,0,0,1-2.9-.55,2,2,0,0,1-1.41-2c0-.95.37-1.42,1.1-1.42a6.3,6.3,0,0,1,1.3.5,5,5,0,0,0,2,.49.72.72,0,0,0,.83-.81,1,1,0,0,0-.56-.89,9.26,9.26,0,0,0-1.59-.75,6.13,6.13,0,0,1-1.27-.58,3.18,3.18,0,0,1-1.18-2.66,4,4,0,0,1,1-2.83,2.94,2.94,0,0,1,2.28-1.07,7.12,7.12,0,0,1,2.28.33q1.81.68,1.47,2c-.24.87-.67,1.27-1.3,1.21a5.82,5.82,0,0,1-.93-.37,3.81,3.81,0,0,0-1.51-.37c-.43,0-.65.25-.65.75a1,1,0,0,0,.55.83,11.66,11.66,0,0,0,1.57.76,6.52,6.52,0,0,1,1.28.62,3.34,3.34,0,0,1,1.2,2.8,4.07,4.07,0,0,1-1,2.94A3.22,3.22,0,0,1,191.86,227.06Z"/><path class="cls-2" d="M199.2,224.87l-.29.92c-.27.82-.7,1.23-1.31,1.23a1.39,1.39,0,0,1-1.29-.64,2.24,2.24,0,0,1-.4-1.16,2.76,2.76,0,0,1,.2-1l3.2-8.15c.32-.81.81-1.22,1.47-1.22s1.15.41,1.47,1.22l3.21,8.15a2.66,2.66,0,0,1,.21,1,2.36,2.36,0,0,1-.38,1.16A1.4,1.4,0,0,1,204,227c-.61,0-1-.41-1.31-1.23l-.3-.92Zm2.25-2.89-.66-2.11-.67,2.11Z"/><path class="cls-2" d="M212.78,221.84l1.54,2.35a2,2,0,0,1,.34,1.12,1.59,1.59,0,0,1-.62,1.15,1.81,1.81,0,0,1-1.15.55c-.34,0-.67-.24-1-.73l-2.5-3.88v3a1.54,1.54,0,1,1-3.08,0v-9a1.37,1.37,0,0,1,1.54-1.57h3.48a2.56,2.56,0,0,1,2.14,1.15,4.07,4.07,0,0,1,.86,2.47A3.77,3.77,0,0,1,212.78,221.84Zm-3.37-4.56v2.79h.88c.87,0,1.31-.47,1.31-1.4s-.44-1.39-1.31-1.39Z"/><path class="cls-2" d="M221.77,221.84l1.54,2.35a2,2,0,0,1,.34,1.12,1.59,1.59,0,0,1-.62,1.15,1.81,1.81,0,0,1-1.14.55c-.35,0-.68-.24-1-.73l-2.5-3.88v3a1.54,1.54,0,1,1-3.08,0v-9a1.37,1.37,0,0,1,1.54-1.57h3.48a2.56,2.56,0,0,1,2.14,1.15,4.07,4.07,0,0,1,.86,2.47A3.75,3.75,0,0,1,221.77,221.84Zm-3.37-4.56v2.79h.88c.87,0,1.31-.47,1.31-1.4s-.44-1.39-1.31-1.39Z"/><path class="cls-2" d="M235.31,220.81a6.56,6.56,0,0,1-1.58,4.57,5.41,5.41,0,0,1-8,0,7.48,7.48,0,0,1,0-9.16,5.44,5.44,0,0,1,8,0A6.69,6.69,0,0,1,235.31,220.81Zm-3.69-2.27a2.22,2.22,0,0,0-1.86-.9,2.25,2.25,0,0,0-1.87.9,3.52,3.52,0,0,0-.71,2.27,3.44,3.44,0,0,0,.71,2.25,2.4,2.4,0,0,0,3.73,0,4,4,0,0,0,0-4.52Z"/><path class="cls-2" d="M241.46,227h-4a1.37,1.37,0,0,1-1.54-1.57v-9a1.54,1.54,0,1,1,3.08,0v7.75h2.41q1,0,1,1.44C242.42,226.54,242.1,227,241.46,227Z"/><path class="cls-2" d="M248.68,227h-3.94a1.37,1.37,0,0,1-1.54-1.57v-9a1.54,1.54,0,1,1,3.07,0v7.75h2.41c.65,0,1,.48,1,1.44S249.33,227,248.68,227Z"/><path class="cls-2" d="M261.42,220.81a6.52,6.52,0,0,1-1.58,4.57,5.41,5.41,0,0,1-8,0,6.6,6.6,0,0,1-1.56-4.57,6.69,6.69,0,0,1,1.55-4.59,5.44,5.44,0,0,1,8,0A6.69,6.69,0,0,1,261.42,220.81Zm-3.68-2.27a2.39,2.39,0,0,0-3.74,0,3.58,3.58,0,0,0-.71,2.27,3.5,3.5,0,0,0,.71,2.25,2.4,2.4,0,0,0,3.73,0,3.55,3.55,0,0,0,.71-2.26A3.6,3.6,0,0,0,257.74,218.54Z"/><path class="cls-2" d="M270.78,218.71l1.72-2.64a2.1,2.1,0,0,1,1.68-1.15,1.27,1.27,0,0,1,1.24.58,2.28,2.28,0,0,1,.32,1.05,3,3,0,0,1-.28,1.11l-3.17,4.81v3a1.54,1.54,0,1,1-3.08,0v-3l-3.11-4.81a2.82,2.82,0,0,1-.28-1.11,2.28,2.28,0,0,1,.32-1.05,1.25,1.25,0,0,1,1.23-.58,2.07,2.07,0,0,1,1.68,1.15Z"/><path class="cls-2" d="M286.7,221.84l1.54,2.35a2,2,0,0,1,.34,1.12,1.56,1.56,0,0,1-.62,1.15,1.77,1.77,0,0,1-1.14.55c-.35,0-.68-.24-1-.73l-2.5-3.88v3a1.54,1.54,0,1,1-3.08,0v-9a1.38,1.38,0,0,1,1.54-1.57h3.48a2.58,2.58,0,0,1,2.15,1.15,4.06,4.06,0,0,1,.85,2.47A3.75,3.75,0,0,1,286.7,221.84Zm-3.37-4.56v2.79h.89c.87,0,1.3-.47,1.3-1.4s-.43-1.39-1.3-1.39Z"/><path class="cls-2" d="M290.78,227a1.38,1.38,0,0,1-1.54-1.57v-9a1.38,1.38,0,0,1,1.54-1.57h3.73c.8,0,1.2.48,1.2,1.43s-.4,1.44-1.2,1.44h-2.19v1.75h1.88c.8,0,1.2.48,1.2,1.45s-.4,1.44-1.2,1.44h-1.88v1.81h2.19q1.2,0,1.2,1.44c0,.95-.4,1.43-1.2,1.43Z"/><path class="cls-2" d="M300.68,227.06a8,8,0,0,1-2.9-.55,2,2,0,0,1-1.41-2c0-.95.37-1.42,1.1-1.42a6.3,6.3,0,0,1,1.3.5,5.05,5.05,0,0,0,2,.49.72.72,0,0,0,.82-.81,1,1,0,0,0-.56-.89,9.26,9.26,0,0,0-1.59-.75,6.13,6.13,0,0,1-1.27-.58,3.18,3.18,0,0,1-1.18-2.66,4,4,0,0,1,1-2.83,2.94,2.94,0,0,1,2.28-1.07,7.12,7.12,0,0,1,2.28.33q1.82.68,1.47,2c-.24.87-.67,1.27-1.3,1.21a6.27,6.27,0,0,1-.93-.37,3.81,3.81,0,0,0-1.5-.37q-.66,0-.66.75a1,1,0,0,0,.55.83,11.66,11.66,0,0,0,1.57.76,6.52,6.52,0,0,1,1.28.62,3.34,3.34,0,0,1,1.2,2.8,4.07,4.07,0,0,1-1,2.94A3.22,3.22,0,0,1,300.68,227.06Z"/><path class="cls-2" d="M315.85,220.81a6.56,6.56,0,0,1-1.58,4.57,5.41,5.41,0,0,1-8,0,6.56,6.56,0,0,1-1.57-4.57,6.65,6.65,0,0,1,1.56-4.59,5.44,5.44,0,0,1,8,0A6.69,6.69,0,0,1,315.85,220.81Zm-3.69-2.27a2.22,2.22,0,0,0-1.86-.9,2.25,2.25,0,0,0-1.87.9,3.52,3.52,0,0,0-.71,2.27,3.44,3.44,0,0,0,.71,2.25,2.24,2.24,0,0,0,1.86.89,2.27,2.27,0,0,0,1.87-.89,4,4,0,0,0,0-4.52Z"/><path class="cls-2" d="M322,227h-3.94a1.37,1.37,0,0,1-1.54-1.57v-9a1.54,1.54,0,1,1,3.08,0v7.75H322c.65,0,1,.48,1,1.44S322.64,227,322,227Z"/><path class="cls-2" d="M332,223.72a2.86,2.86,0,0,1-1.26,2.56,5.38,5.38,0,0,1-5.74,0,2.86,2.86,0,0,1-1.26-2.56V216.4a1.54,1.54,0,1,1,3.07,0v6.79a1.06,1.06,0,0,0,2.12,0V216.4a1.54,1.54,0,1,1,3.07,0Z"/><path class="cls-2" d="M342.41,224.83a2.24,2.24,0,0,1-.89,1.48,5,5,0,0,1-3.31.82,5.09,5.09,0,0,1-4-1.75,7.52,7.52,0,0,1,0-9.16,5.12,5.12,0,0,1,4-1.76,4.88,4.88,0,0,1,3.31.83,2.24,2.24,0,0,1,.87,1.47,1.92,1.92,0,0,1-.37,1.17,1,1,0,0,1-.82.51,4.24,4.24,0,0,1-1.42-.4,4.37,4.37,0,0,0-1.45-.4c-1.74,0-2.61,1.06-2.61,3.16s.87,3.15,2.61,3.15a4.13,4.13,0,0,0,1.45-.4,4.41,4.41,0,0,1,1.42-.39,1,1,0,0,1,.82.51A1.89,1.89,0,0,1,342.41,224.83Z"/><path class="cls-2" d="M346.27,225.45a1.54,1.54,0,1,1-3.08,0v-9a1.54,1.54,0,1,1,3.08,0Z"/><path class="cls-2" d="M358,220.81a6.56,6.56,0,0,1-1.58,4.57,5.41,5.41,0,0,1-8,0,7.52,7.52,0,0,1,0-9.16,5.44,5.44,0,0,1,8,0A6.69,6.69,0,0,1,358,220.81Zm-3.68-2.27a2.39,2.39,0,0,0-3.74,0,3.58,3.58,0,0,0-.71,2.27,3.5,3.5,0,0,0,.71,2.25,2.4,2.4,0,0,0,3.73,0,3.55,3.55,0,0,0,.71-2.26A3.6,3.6,0,0,0,354.36,218.54Z"/><path class="cls-2" d="M365,220.26V216.4a1.54,1.54,0,1,1,3.08,0v9a1.37,1.37,0,0,1-1.54,1.57,1.59,1.59,0,0,1-1.35-.68l-3.45-4.77v3.88a1.54,1.54,0,1,1-3.08,0v-9a1.38,1.38,0,0,1,1.54-1.57,1.46,1.46,0,0,1,1.41.74Z"/><path class="cls-2" d="M375.83,225.45a1.54,1.54,0,1,1-3.08,0v-9a1.54,1.54,0,1,1,3.08,0Z"/><path class="cls-2" d="M383,220.26V216.4a1.54,1.54,0,1,1,3.08,0v9a1.38,1.38,0,0,1-1.54,1.57,1.59,1.59,0,0,1-1.35-.68l-3.46-4.77v3.88a1.54,1.54,0,1,1-3.07,0v-9a1.38,1.38,0,0,1,1.54-1.57,1.47,1.47,0,0,1,1.41.74Z"/><path class="cls-2" d="M392.56,217.7v7.77a1.54,1.54,0,1,1-3.08,0V217.7h-1.55c-.83,0-1.24-.48-1.24-1.44s.41-1.43,1.24-1.43h6.2c.83,0,1.25.48,1.25,1.43s-.42,1.44-1.25,1.44Z"/><path class="cls-2" d="M397.58,227a1.37,1.37,0,0,1-1.54-1.57v-9a1.37,1.37,0,0,1,1.54-1.57h3.73c.79,0,1.19.48,1.19,1.43s-.4,1.44-1.19,1.44h-2.2v1.75H401c.79,0,1.19.48,1.19,1.45s-.4,1.44-1.19,1.44h-1.89v1.81h2.2c.79,0,1.19.48,1.19,1.44s-.4,1.43-1.19,1.43Z"/><path class="cls-2" d="M413,221.19v3.3a2.25,2.25,0,0,1-1,1.88,5.71,5.71,0,0,1-3.36.76,5,5,0,0,1-3.9-1.75,6.56,6.56,0,0,1-1.57-4.57,6.65,6.65,0,0,1,1.56-4.59,4.81,4.81,0,0,1,3.73-1.76,5.77,5.77,0,0,1,3.32.8c.76.53,1.14,1,1.15,1.49a1.89,1.89,0,0,1-.39,1.24,1.08,1.08,0,0,1-.8.55,2.56,2.56,0,0,1-1.13-.44,4.16,4.16,0,0,0-2-.46,2,2,0,0,0-1.85.89,4.07,4.07,0,0,0-.6,2.28,3.5,3.5,0,0,0,.7,2.25,2.29,2.29,0,0,0,1.93.87c.82,0,1.22-.38,1.22-1.1a1.07,1.07,0,0,0,0-.25h-.48c-.93,0-1.4-.51-1.4-1.52s.47-1.52,1.4-1.52h2.33Q413,219.54,413,221.19Z"/><path class="cls-2" d="M420.24,221.84l1.54,2.35a2,2,0,0,1,.34,1.12,1.59,1.59,0,0,1-.62,1.15,1.81,1.81,0,0,1-1.15.55c-.34,0-.67-.24-1-.73l-2.5-3.88v3a1.54,1.54,0,1,1-3.08,0v-9a1.37,1.37,0,0,1,1.54-1.57h3.48A2.56,2.56,0,0,1,421,216a4.07,4.07,0,0,1,.86,2.47A3.77,3.77,0,0,1,420.24,221.84Zm-3.37-4.56v2.79h.88c.87,0,1.31-.47,1.31-1.4s-.44-1.39-1.31-1.39Z"/><path class="cls-2" d="M426,224.87l-.29.92c-.27.82-.7,1.23-1.31,1.23a1.39,1.39,0,0,1-1.29-.64,2.24,2.24,0,0,1-.4-1.16,2.76,2.76,0,0,1,.2-1l3.2-8.15c.32-.81.81-1.22,1.47-1.22s1.15.41,1.47,1.22l3.21,8.15a2.66,2.66,0,0,1,.21,1,2.36,2.36,0,0,1-.38,1.16,1.4,1.4,0,0,1-1.31.64c-.61,0-1.05-.41-1.31-1.23l-.3-.92ZM428.2,222l-.66-2.11-.67,2.11Z"/><path class="cls-2" d="M438.56,227h-3.94a1.37,1.37,0,0,1-1.54-1.57v-9a1.54,1.54,0,1,1,3.07,0v7.75h2.41c.65,0,1,.48,1,1.44S439.21,227,438.56,227Z"/></g></g></g></svg>