<svg xmlns="http://www.w3.org/2000/svg" viewBox="0 0 17.69 17.54"><defs><style>.cls-1{fill:#0d1139;fill-rule:evenodd;}</style></defs><title>web</title><g id="Capa_2" data-name="Capa 2"><g id="Capa_1-2" data-name="Capa 1"><path class="cls-1" d="M7.17,6.54a1.55,1.55,0,0,1-.53.14,1.46,1.46,0,0,1-1-.23A3.91,3.91,0,0,0,5,8.35a11.71,11.71,0,0,0,2.46-1A6.9,6.9,0,0,1,7.17,6.54Z"/><path class="cls-1" d="M10.38,5.05A3.84,3.84,0,0,0,8.84,4.7a2.52,2.52,0,0,0-.48.06,1.31,1.31,0,0,1,0,.78,1.82,1.82,0,0,1-.51.63,7.74,7.74,0,0,0,.24.77A9.73,9.73,0,0,0,10.38,5.05Z"/><path class="cls-1" d="M7.66,5.25a.45.45,0,0,0,0-.34,4,4,0,0,0-1.57,1,.92.92,0,0,0,.48.1A1.43,1.43,0,0,0,7.66,5.25Z"/><path class="cls-1" d="M7.7,8A11.62,11.62,0,0,1,5,9.1a3.88,3.88,0,0,0,1,2.25A20.06,20.06,0,0,0,9.2,9.9,5.82,5.82,0,0,1,7.7,8Z"/><path class="cls-1" d="M0,0V17.54H17.69V0ZM11.76,12.13l-.85.24.49.72.1.15h-.61l0,0-.37-.53-.53.71-.14.18,0-.22,0-2.11v-.18l.14.08,1.91.84.2.1Zm.61-.42,0,.08-.06,0-.49-.29-.08-.06.06-.08a4,4,0,0,0,1-2.63,3.43,3.43,0,0,0-.12-.87c-1,1.58-3.17,3-6.09,4.08a3.92,3.92,0,0,0,2.28.78l.18,0h.21v.07l.08.56v.09h-.1l-.39,0a4.74,4.74,0,1,1,3.53-1.67Z"/><path class="cls-1" d="M11,5.41a11.11,11.11,0,0,1-2.71,2.2A4.88,4.88,0,0,0,9.84,9.48a6.82,6.82,0,0,0,2.5-2.55A3.64,3.64,0,0,0,11,5.41Z"/></g></g></svg>