<svg xmlns="http://www.w3.org/2000/svg" viewBox="0 0 17.69 17.54"><defs><style>.cls-1,.cls-3{fill:#0d1139;}.cls-1{fill-rule:evenodd;}.cls-2{fill:#323031;}.cls-4{fill:none;}.cls-5{fill:#fff;}</style></defs><title>wssp</title><g id="Capa_2" data-name="Capa 2"><g id="Capa_1-2" data-name="Capa 1"><path class="cls-1" d="M0,0V17.54H17.69V0ZM4.48,5.53a13,13,0,0,1,8.71,0,2.88,2.88,0,0,1,.57,1.6,3.65,3.65,0,0,1-2.5-.32c0-.5-.39-.78-1.4-.89A10,10,0,0,0,7.22,6c-.67.12-.8.51-.79.79a3.25,3.25,0,0,1-2.55.32A4.47,4.47,0,0,1,4.48,5.53ZM3.89,7.39a3,3,0,0,0,2.52-.26s.28,1.21-1.15,1.36S3.86,8,3.89,7.39Zm8.76,5.37H5V11.44a3.11,3.11,0,0,1,.41-1.34c.4-.71,1.47-2.4,1.47-2.4l0-1H8v.73H9.62V6.7h1.15v1l1.52,2.43a2.19,2.19,0,0,1,.36,1.09Zm-.22-4.27C11,8.34,11.28,7.13,11.28,7.13a3,3,0,0,0,2.52.26C13.83,8,13.85,8.65,12.43,8.49Z"/><rect class="cls-2" x="8.44" y="8.26" width="0.73" height="0.54"/><rect class="cls-2" x="8.44" y="9.15" width="0.73" height="0.54"/><rect class="cls-2" x="7.4" y="8.26" width="0.73" height="0.54"/><rect class="cls-2" x="7.4" y="10.04" width="0.73" height="0.54"/><rect class="cls-2" x="7.4" y="9.15" width="0.73" height="0.54"/><rect class="cls-2" x="8.44" y="10.04" width="0.73" height="0.54"/><rect class="cls-2" x="9.46" y="8.26" width="0.73" height="0.54"/><rect class="cls-2" x="9.46" y="10.04" width="0.73" height="0.54"/><rect class="cls-2" x="9.46" y="9.15" width="0.73" height="0.54"/><rect class="cls-3" x="0.79" y="2.44" width="14.82" height="12.31"/><path class="cls-4" d="M9.39,3.44A5.25,5.25,0,0,0,4.15,8.68,5.18,5.18,0,0,0,5.27,11.9l-.35,1.81,1.7-.59A5.24,5.24,0,1,0,9.39,3.44Z"/><path class="cls-5" d="M9.39,14.34a5.6,5.6,0,0,1-2.82-.76l-2.21.76L4.82,12a5.66,5.66,0,1,1,4.57,2.33ZM6.67,12.66l.17.1A4.81,4.81,0,1,0,4.57,8.68a4.75,4.75,0,0,0,1,3l.12.15-.25,1.28Z"/><path class="cls-5" d="M6.53,6.51s.34-.58.61-.62.62,0,.71.15.51,1.2.51,1.2a.39.39,0,0,1,0,.35A3.49,3.49,0,0,1,8,8a.31.31,0,0,0,0,.37,6.48,6.48,0,0,0,.79,1,4.28,4.28,0,0,0,1.3.76.25.25,0,0,0,.2-.06l.49-.6a.29.29,0,0,1,.36-.07c.23.1,1.2.58,1.2.58s.11,0,.11.22a1.37,1.37,0,0,1-.21.73,1.7,1.7,0,0,1-1.18.58,5.23,5.23,0,0,1-2.9-1.3A5.8,5.8,0,0,1,6.47,7.87C6.31,7.14,6.33,6.81,6.53,6.51Z"/></g></g></svg>