<svg width="81" height="82" viewBox="0 0 81 82" fill="none" xmlns="http://www.w3.org/2000/svg">
<path d="M40.7812 8.21545C35.0231 8.21381 29.3698 9.75491 24.4092 12.6785C19.4486 15.602 15.3618 19.8012 12.574 24.8394C9.78621 29.8775 8.3991 35.5706 8.55705 41.3264C8.715 47.0823 10.4122 52.6907 13.4721 57.5684L14.2382 58.7874L10.9832 70.6735L23.1781 67.4734L24.3551 68.1735C29.3208 71.1125 34.9849 72.6633 40.7552 72.6635H40.7681C49.3146 72.665 57.5117 69.2715 63.5561 63.2294C69.6005 57.1872 72.9971 48.9914 72.9987 40.4449C73.0003 31.8985 69.6066 23.7014 63.5645 17.657C57.5224 11.6126 49.3267 8.21595 40.7802 8.21436L40.7812 8.21545ZM59.7352 54.2744C58.9282 56.5364 55.0582 58.6014 53.1972 58.8744C51.1616 59.2221 49.073 59.0906 47.0971 58.4904C45.2217 57.9083 43.3785 57.2274 41.5751 56.4504C31.8581 52.2564 25.5111 42.4754 25.0271 41.8284C24.5431 41.1814 21.0722 36.5774 21.0722 31.8114C21.045 30.3032 21.3324 28.8058 21.9161 27.4148C22.4997 26.0238 23.3669 24.7697 24.4622 23.7324C24.7859 23.3632 25.1825 23.065 25.627 22.8564C26.0715 22.6479 26.5542 22.5334 27.0451 22.5204C27.6911 22.5204 28.3371 22.5264 28.9021 22.5544C29.4961 22.5844 30.2951 22.3284 31.0811 24.2174C31.8881 26.1554 33.8262 30.9173 34.0682 31.4073C34.2224 31.6615 34.3106 31.9502 34.3248 32.2471C34.3389 32.544 34.2785 32.8398 34.1491 33.1074C33.9046 33.6894 33.5783 34.2336 33.1801 34.7234C32.6951 35.2884 32.1631 35.9855 31.7271 36.4235C31.2421 36.9065 30.7372 37.4304 31.3022 38.4004C32.7571 40.8905 34.5732 43.1511 36.6912 45.1084C38.989 47.1509 41.625 48.7776 44.4811 49.9154C45.4491 50.4004 46.0151 50.3154 46.5811 49.6724C47.1471 49.0294 49.0031 46.8454 49.6491 45.8724C50.2951 44.8994 50.9411 45.0644 51.8291 45.3884C52.7171 45.7124 57.4792 48.0535 58.4482 48.5385C59.4172 49.0235 60.0621 49.2664 60.3041 49.6694C60.5461 50.0724 60.5421 52.0124 59.7311 54.2744H59.7352Z" fill="#5EA538"/>
<path d="M58.4441 48.5386C57.4751 48.0536 52.7121 45.7115 51.8251 45.3885C50.9381 45.0655 50.2912 44.9036 49.6452 45.8726C48.9992 46.8416 47.1452 49.0235 46.5772 49.6725C46.0092 50.3215 45.4471 50.4005 44.4771 49.9155C41.621 48.7777 38.985 47.1511 36.6872 45.1085C34.5692 43.1512 32.753 40.8906 31.2981 38.4005C30.7331 37.4305 31.2382 36.9066 31.7232 36.4236C32.1592 35.9896 32.6912 35.2925 33.1762 34.7235C33.5744 34.2337 33.9007 33.6896 34.1452 33.1075C34.2745 32.8399 34.3349 32.5441 34.3207 32.2472C34.3066 31.9503 34.2184 31.6616 34.0641 31.4075C33.8221 30.9225 31.8842 26.1555 31.0772 24.2175C30.2912 22.3285 29.4921 22.5846 28.8981 22.5546C28.3331 22.5266 27.6872 22.5205 27.0412 22.5205C26.5503 22.5335 26.0675 22.648 25.623 22.8566C25.1785 23.0651 24.7819 23.3634 24.4582 23.7325C23.3629 24.7698 22.4958 26.0239 21.9122 27.4149C21.3285 28.8059 21.041 30.3033 21.0682 31.8115C21.0682 36.5775 24.5391 41.1825 25.0231 41.8285C25.5071 42.4745 31.8541 52.2566 41.5711 56.4506C43.3745 57.2276 45.2178 57.9084 47.0932 58.4905C49.0691 59.0907 51.1576 59.2222 53.1932 58.8745C55.0542 58.5965 58.9241 56.5315 59.7311 54.2745C60.5381 52.0175 60.5382 50.0746 60.2962 49.6746C60.0542 49.2746 59.4121 49.0236 58.4441 48.5386Z" fill="white"/>
<path d="M40.7678 1.66504C33.9653 1.66647 27.283 3.45739 21.3915 6.85803C15.5 10.2587 10.6068 15.1493 7.20312 21.0391C3.79943 26.9288 2.00496 33.6104 2 40.4128C1.99504 47.2153 3.7797 53.8994 7.1748 59.7941L1.6748 79.8771L22.2268 74.488C27.9114 77.5827 34.2805 79.2044 40.7528 79.2051H40.7688C51.0512 79.2051 60.9126 75.1204 68.1833 67.8496C75.4541 60.5788 79.5388 50.7175 79.5388 40.4351C79.5388 30.1526 75.4541 20.2913 68.1833 13.0205C60.9126 5.74972 51.0512 1.66504 40.7688 1.66504H40.7678ZM40.7678 72.66H40.7549C34.9847 72.6598 29.3205 71.1091 24.3549 68.17L23.1779 67.4701L10.9829 70.67L14.2379 58.7841L13.4718 57.5651C9.6754 51.5132 7.99774 44.3713 8.70251 37.2621C9.40729 30.1529 12.4546 23.4793 17.3654 18.2906C22.2761 13.102 28.7718 9.69238 35.8315 8.59766C42.8912 7.50294 50.1146 8.78525 56.3661 12.243C62.6176 15.7008 67.5428 21.138 70.3676 27.7C73.1923 34.2619 73.7562 41.5764 71.9709 48.4938C70.1856 55.4112 66.1523 61.5392 60.5048 65.9146C54.8573 70.2899 47.9159 72.6645 40.7719 72.665L40.7678 72.66Z" fill="white"/>
<path d="M0.0510254 81.4883L5.95093 59.9513C2.5485 53.8769 0.794128 47.0182 0.861816 40.0562C0.929505 33.0941 2.8169 26.2709 6.33679 20.2638C9.85669 14.2567 14.8866 9.27484 20.9271 5.81262C26.9676 2.3504 33.8086 0.528374 40.771 0.527344C46.8311 0.52848 52.8114 1.90957 58.2583 4.56592C63.7052 7.22227 68.4756 11.0841 72.2079 15.8585C75.9402 20.6329 78.5363 26.1945 79.7992 32.1216C81.0621 38.0486 80.9587 44.1855 79.4969 50.0667C78.0352 55.9478 75.2533 61.4189 71.3624 66.0649C67.4715 70.711 62.5737 74.4099 57.0404 76.8813C51.5072 79.3528 45.4838 80.5318 39.4271 80.3289C33.3704 80.1259 27.4394 78.5466 22.084 75.7103L0.0510254 81.4883ZM40.7689 2.81128C34.1673 2.81321 27.6823 4.55172 21.965 7.85229C16.2476 11.1529 11.4991 15.8994 8.19604 21.6154C4.89303 27.3313 3.15173 33.8155 3.14697 40.4171C3.14222 47.0188 4.87417 53.5056 8.16895 59.2263L8.40698 59.6393L3.30701 78.2743L22.3829 73.2743L22.783 73.4902C27.8172 76.2312 33.4111 77.7859 39.1377 78.0355C44.8643 78.2852 50.5723 77.2234 55.8259 74.9309C61.0796 72.6385 65.74 69.1761 69.4517 64.808C73.1633 60.4399 75.8279 55.2816 77.2422 49.7268C78.6565 44.172 78.7831 38.3674 77.6123 32.7562C76.4415 27.145 74.0043 21.8755 70.4866 17.3497C66.9689 12.824 62.4637 9.16175 57.3149 6.64246C52.1662 4.12316 46.51 2.81344 40.778 2.81323L40.7689 2.81128ZM40.7689 73.8063H40.756C34.7802 73.8065 28.9142 72.2004 23.772 69.1562L23.007 68.7013L9.35901 72.2803L13.004 58.9703L12.504 58.1763C8.57181 51.9104 6.83327 44.5155 7.56189 37.1539C8.29051 29.7924 11.4449 22.8816 16.5292 17.5082C21.6134 12.1347 28.3391 8.60324 35.6492 7.46887C42.9592 6.33451 50.439 7.66167 56.9126 11.2416C63.3862 14.8215 68.4866 20.4512 71.412 27.2457C74.3373 34.0403 74.9217 41.6143 73.0734 48.7772C71.225 55.9401 67.0487 62.2856 61.2009 66.8163C55.3531 71.3469 48.1655 73.8058 40.7679 73.8063H40.7689ZM23.35 66.2493L24.938 67.1913C29.7275 70.0266 35.1911 71.5225 40.757 71.5223L40.7689 72.6643V71.5223C47.6589 71.5215 54.3534 69.231 59.7998 65.011C65.2462 60.791 69.1359 54.8808 70.8574 48.2094C72.5789 41.5379 72.0346 34.4834 69.3101 28.155C66.5855 21.8266 61.8352 16.583 55.8059 13.2484C49.7766 9.91385 42.8102 8.67745 36.0016 9.73352C29.193 10.7896 22.9284 14.0783 18.1925 19.0826C13.4566 24.087 10.5181 30.5231 9.83862 37.3795C9.15918 44.2359 10.7774 51.1238 14.439 56.9603L15.473 58.6042L12.6069 69.0673L23.35 66.2493Z" fill="#5EA538"/>
</svg>
